# xmcd CD database file
#
# Track frame offsets:
#	150
#	19803
#	32883
#	46704
#	65720
#	85250
#	103026
#	113213
#	130991
#	146489
#	165621
#	178451
#	192193
#	209096
#	221858
#	238160
#	253032
#	270064
#
# Disc length: 3734 seconds
#
# Revision: 0
# Processed by: cddbd v1.5.1PL0 Copyright (c) Steve Scherf et al.
# Submitted via: CDex 1.40Beta9
#
DISCID=120e9412
DTITLE=Curtis Magee - 19 Hit Songs From Ireland
DYEAR=2001
DGENRE=Country
TTITLE0=Dance The Night away
TTITLE1=The Broken Speed
TTITLE2=Pamela Brown
TTITLE3=Its Good To See You
TTITLE4=Anna From Fermanagh
TTITLE5=Kingdom I Call Home
TTITLE6=The Clock On The wall
TTITLE7=You Seldom Call To See Me Anymore
TTITLE8=Be Nobody's Darling, The Red River Valley
TTITLE9=Back Home Again, Old Loves Never Die, Sailor
TTITLE10=You Are No Angel
TTITLE11=Daniel, Put The Kettle On
TTITLE12=The Lightning Express
TTITLE13=The Tear
TTITLE14=Red Rose Cafe
TTITLE15=Waltzin An Angel
TTITLE16=The Nearest to Perfect
TTITLE17=Commercial
EXTD=YEAR: 2001 ID3G: 2
EXTT0=
EXTT1=
EXTT2=
EXTT3=
EXTT4=
EXTT5=
EXTT6=
EXTT7=
EXTT8=
EXTT9=
EXTT10=
EXTT11=
EXTT12=
EXTT13=
EXTT14=
EXTT15=
EXTT16=
EXTT17=
PLAYORDER=
